<svg width="350" height="372" viewBox="0 0 350 372" fill="none" xmlns="http://www.w3.org/2000/svg">
<path d="M3.69731 341.458C4.10483 341.19 4.53779 340.936 5.02172 340.744L7.72157 339.611L10.5869 341.267L6.97021 343.355L3.69731 341.458Z" fill="#432800"></path>
<path d="M3.35344 353.76L6.97021 351.672L10.5869 353.76L6.97021 355.849L3.35344 353.76Z" fill="#432800"></path>
<path d="M0.00425243 348.616C-0.0212178 347.826 0.0679164 347.037 0.271677 346.26L1.72345 345.419L5.34018 347.508L1.72345 349.597L0.0169611 348.616H0.00425243Z" fill="#432800"></path>
<path d="M13.8855 341.268L17.5023 339.18L21.119 341.268L17.5023 343.357L13.8855 341.268Z" fill="#432800"></path>
<path d="M13.8855 353.76L17.5023 351.672L21.119 353.76L17.5023 355.849L13.8855 353.76Z" fill="#432800"></path>
<path d="M12.2295 345.419L15.8463 347.508L12.2295 349.597L8.61278 347.508L12.2295 345.419Z" fill="#432800"></path>
<path d="M9.98819 359.21L12.2295 357.911L15.8463 359.999L13.4012 361.413L9.98819 359.21Z" fill="#432800"></path>
<path d="M24.4045 341.268L28.0212 339.18L31.638 341.268L28.0212 343.357L24.4045 341.268Z" fill="#432800"></path>
<path d="M19.1445 335.014L20.4689 334.25L23.1178 333.129L26.378 335.014L22.7612 337.102L19.1445 335.014Z" fill="#432800"></path>
<path d="M24.4045 353.76L28.0212 351.672L31.638 353.76L28.0212 355.849L24.4045 353.76Z" fill="#432800"></path>
<path d="M19.1445 347.508L22.7612 345.419L26.378 347.508L22.7612 349.597L19.1445 347.508Z" fill="#432800"></path>
<path d="M28.0212 364.164L31.638 366.252L28.0212 368.341L24.4045 366.252L28.0212 364.164Z" fill="#432800"></path>
<path d="M19.1445 359.999L22.7612 357.911L26.378 359.999L22.7612 362.088L19.1445 359.999Z" fill="#432800"></path>
<path d="M34.9236 328.761L38.5404 326.673L42.1571 328.761L38.5404 330.85L34.9236 328.761Z" fill="#432800"></path>
<path d="M34.9236 341.268L38.5404 339.18L42.1571 341.268L38.5404 343.357L34.9236 341.268Z" fill="#432800"></path>
<path d="M29.664 335.015L33.2807 332.926L36.8975 335.015L33.2807 337.103L29.664 335.015Z" fill="#432800"></path>
<path d="M33.2807 357.911L36.8975 359.999L33.2807 362.088L29.664 359.999L33.2807 357.911Z" fill="#432800"></path>
<path d="M38.5404 351.672L42.1571 353.76L38.5404 355.849L34.9236 353.76L38.5404 351.672Z" fill="#432800"></path>
<path d="M29.664 347.508L33.2807 345.419L36.8975 347.508L33.2807 349.597L29.664 347.508Z" fill="#432800"></path>
<path d="M34.9236 366.252L38.5404 364.164L42.1571 366.252L38.5404 368.341L34.9236 366.252Z" fill="#432800"></path>
<path d="M45.4428 328.761L49.0595 326.673L52.6763 328.761L49.0595 330.85L45.4428 328.761Z" fill="#432800"></path>
<path d="M43.7996 324.61L43.6341 324.508L44.8439 324.011L43.7996 324.61Z" fill="#432800"></path>
<path d="M49.0595 339.18L52.6763 341.268L49.0595 343.357L45.4428 341.268L49.0595 339.18Z" fill="#432800"></path>
<path d="M40.1829 335.015L43.7997 332.926L47.4164 335.015L43.7997 337.103L40.1829 335.015Z" fill="#432800"></path>
<path d="M43.7997 357.911L47.4164 359.999L43.7997 362.088L40.1829 359.999L43.7997 357.911Z" fill="#432800"></path>
<path d="M45.4428 353.76L49.0595 351.672L52.6763 353.76L49.0595 355.849L45.4428 353.76Z" fill="#432800"></path>
<path d="M43.7997 345.419L47.4164 347.508L43.7997 349.597L40.1829 347.508L43.7997 345.419Z" fill="#432800"></path>
<path d="M44.7041 370.94C44.0546 370.978 43.4052 371.016 42.7429 371.016L43.7872 370.405L44.6914 370.927L44.7041 370.94Z" fill="#432800"></path>
<path d="M49.0595 364.164L52.6763 366.252L49.0595 368.341L45.4428 366.252L49.0595 364.164Z" fill="#432800"></path>
<path d="M59.0307 318.038L63.0677 316.344L59.5783 318.357L59.0307 318.038Z" fill="#432800"></path>
<path d="M54.3185 332.926L57.9352 335.015L54.3185 337.103L50.7017 335.015L54.3185 332.926Z" fill="#432800"></path>
<path d="M59.5783 326.673L63.195 328.761L59.5783 330.85L55.9616 328.761L59.5783 326.673Z" fill="#432800"></path>
<path d="M50.7017 322.52L54.3185 320.432L57.9352 322.52L54.3185 324.609L50.7017 322.52Z" fill="#432800"></path>
<path d="M55.9616 341.268L59.5783 339.18L63.195 341.268L59.5783 343.357L55.9616 341.268Z" fill="#432800"></path>
<path d="M55.9616 353.76L59.5783 351.672L63.195 353.76L59.5783 355.849L55.9616 353.76Z" fill="#432800"></path>
<path d="M50.7017 347.508L54.3185 345.419L57.9352 347.508L54.3185 349.597L50.7017 347.508Z" fill="#432800"></path>
<path d="M59.5783 364.164L63.195 366.252L59.5783 368.341L55.9616 366.252L59.5783 364.164Z" fill="#432800"></path>
<path d="M50.7017 359.999L54.3185 357.911L57.9352 359.999L54.3185 362.088L50.7017 359.999Z" fill="#432800"></path>
<path d="M64.8506 320.432L68.4673 322.52L64.8506 324.609L61.2338 322.52L64.8506 320.432Z" fill="#432800"></path>
<path d="M70.1104 314.18L73.7271 316.268L70.1104 318.357L66.4936 316.268L70.1104 314.18Z" fill="#432800"></path>
<path d="M66.4936 328.761L70.1104 326.673L73.7271 328.761L70.1104 330.85L66.4936 328.761Z" fill="#432800"></path>
<path d="M66.4936 341.268L70.1104 339.18L73.7271 341.268L70.1104 343.357L66.4936 341.268Z" fill="#432800"></path>
<path d="M61.2338 335.015L64.8506 332.926L68.4673 335.015L64.8506 337.103L61.2338 335.015Z" fill="#432800"></path>
<path d="M64.8506 357.911L68.4673 359.999L64.8506 362.088L61.2338 359.999L64.8506 357.911Z" fill="#432800"></path>
<path d="M70.1104 351.672L73.7271 353.76L70.1104 355.849L66.4936 353.76L70.1104 351.672Z" fill="#432800"></path>
<path d="M61.2338 347.508L64.8506 345.419L68.4673 347.508L64.8506 349.597L61.2338 347.508Z" fill="#432800"></path>
<path d="M70.1104 364.164L73.7271 366.252L70.1104 368.341L66.4936 366.252L70.1104 364.164Z" fill="#432800"></path>
<path d="M77.0128 316.268L80.6295 314.18L84.2462 316.268L80.6295 318.357L77.0128 316.268Z" fill="#432800"></path>
<path d="M78.9864 310.029L75.3697 312.118L74.4273 311.57L78.6171 309.812L78.9864 310.029Z" fill="#432800"></path>
<path d="M77.0128 328.761L80.6295 326.673L84.2462 328.761L80.6295 330.85L77.0128 328.761Z" fill="#432800"></path>
<path d="M71.7529 322.52L75.3697 320.432L78.9864 322.52L75.3697 324.609L71.7529 322.52Z" fill="#432800"></path>
<path d="M80.6295 339.18L84.2462 341.268L80.6295 343.357L77.0128 341.268L80.6295 339.18Z" fill="#432800"></path>
<path d="M71.7529 335.015L75.3697 332.926L78.9864 335.015L75.3697 337.103L71.7529 335.015Z" fill="#432800"></path>
<path d="M77.0128 353.76L80.6295 351.672L84.2462 353.76L80.6295 355.849L77.0128 353.76Z" fill="#432800"></path>
<path d="M75.3697 345.419L78.9864 347.508L75.3697 349.597L71.7529 347.508L75.3697 345.419Z" fill="#432800"></path>
<path d="M80.6295 364.164L84.2462 366.252L81.3299 367.933L80.1074 368.035L77.0128 366.252L80.6295 364.164Z" fill="#432800"></path>
<path d="M71.7529 359.999L75.3697 357.911L78.9864 359.999L75.3697 362.088L71.7529 359.999Z" fill="#432800"></path>
<path d="M89.8242 305.1L94.0141 303.343L94.7654 303.776L91.1487 305.865L89.8242 305.1Z" fill="#432800"></path>
<path d="M87.5319 316.268L91.1487 314.18L94.7654 316.268L91.1487 318.357L87.5319 316.268Z" fill="#432800"></path>
<path d="M82.2723 310.027L85.889 307.939L89.5057 310.027L85.889 312.116L82.2723 310.027Z" fill="#432800"></path>
<path d="M85.889 332.926L89.5057 335.015L85.889 337.103L82.2723 335.015L85.889 332.926Z" fill="#432800"></path>
<path d="M91.1487 326.673L94.7654 328.761L91.1487 330.85L87.5319 328.761L91.1487 326.673Z" fill="#432800"></path>
<path d="M82.2723 322.52L85.889 320.432L89.5057 322.52L85.889 324.609L82.2723 322.52Z" fill="#432800"></path>
<path d="M87.5319 341.268L91.1487 339.18L94.7654 341.268L91.1487 343.357L87.5319 341.268Z" fill="#432800"></path>
<path d="M85.889 357.911L89.5057 359.999L85.889 362.088L82.2723 359.999L85.889 357.911Z" fill="#432800"></path>
<path d="M91.1487 351.672L94.7654 353.76L91.1487 355.849L87.5319 353.76L91.1487 351.672Z" fill="#432800"></path>
<path d="M82.2723 347.508L85.889 345.419L89.5057 347.508L85.889 349.597L82.2723 347.508Z" fill="#432800"></path>
<path d="M87.5319 366.252L91.1487 364.164L94.7654 366.252L93.6193 366.915L89.3021 367.271L87.5319 366.252Z" fill="#432800"></path>
<path d="M98.0509 303.776L101.668 301.688L105.284 303.776L101.668 305.865L98.0509 303.776Z" fill="#432800"></path>
<path d="M96.408 320.432L100.025 322.52L96.408 324.609L92.7912 322.52L96.408 320.432Z" fill="#432800"></path>
<path d="M101.668 314.18L105.284 316.268L101.668 318.357L98.0509 316.268L101.668 314.18Z" fill="#432800"></path>
<path d="M92.7912 310.027L96.408 307.939L100.025 310.027L96.408 312.116L92.7912 310.027Z" fill="#432800"></path>
<path d="M98.0509 328.761L101.668 326.673L105.284 328.761L101.668 330.85L98.0509 328.761Z" fill="#432800"></path>
<path d="M101.668 339.18L105.284 341.268L101.668 343.357L98.0509 341.268L101.668 339.18Z" fill="#432800"></path>
<path d="M92.7912 335.015L96.408 332.926L100.025 335.015L96.408 337.103L92.7912 335.015Z" fill="#432800"></path>
<path d="M96.408 357.911L100.025 359.999L96.408 362.088L92.7912 359.999L96.408 357.911Z" fill="#432800"></path>
<path d="M101.668 351.672L105.284 353.76L101.668 355.849L98.0509 353.76L101.668 351.672Z" fill="#432800"></path>
<path d="M96.408 345.419L100.025 347.508L96.408 349.597L92.7912 347.508L96.408 345.419Z" fill="#432800"></path>
<path d="M98.0508 366.252L101.668 364.164L104.813 365.985L98.4965 366.507L98.0508 366.252Z" fill="#432800"></path>
<path d="M106.927 307.939L110.544 310.027L106.927 312.116L103.311 310.027L106.927 307.939Z" fill="#432800"></path>
<path d="M115.816 303.776L112.2 305.865L108.583 303.776L112.2 301.688L115.816 303.776Z" fill="#432800"></path>
<path d="M105.221 298.63L109.411 296.872L110.544 297.534L106.927 299.623L105.221 298.63Z" fill="#432800"></path>
<path d="M112.2 318.357L108.583 316.268L112.2 314.18L115.816 316.268L112.2 318.357Z" fill="#432800"></path>
<path d="M106.927 332.926L110.544 335.015L106.927 337.103L103.311 335.015L106.927 332.926Z" fill="#432800"></path>
<path d="M112.2 326.673L115.816 328.761L112.2 330.85L108.583 328.761L112.2 326.673Z" fill="#432800"></path>
<path d="M103.311 322.52L106.927 320.432L110.544 322.52L106.927 324.609L103.311 322.52Z" fill="#432800"></path>
<path d="M112.2 339.18L115.816 341.268L112.2 343.357L108.583 341.268L112.2 339.18Z" fill="#432800"></path>
<path d="M106.927 357.911L110.544 359.999L106.927 362.088L103.311 359.999L106.927 357.911Z" fill="#432800"></path>
<path d="M112.2 351.672L115.816 353.76L112.2 355.849L108.583 353.76L112.2 351.672Z" fill="#432800"></path>
<path d="M106.927 345.419L110.544 347.508L106.927 349.597L103.311 347.508L106.927 345.419Z" fill="#432800"></path>
<path d="M109.754 365.565L112.199 364.164L114.008 365.208L109.754 365.565Z" fill="#432800"></path>
<path d="M120.63 292.161L124.807 290.404L126.335 291.282L122.719 293.371L120.63 292.161Z" fill="#432800"></path>
<path d="M122.719 305.865L119.102 303.776L122.719 301.688L126.335 303.776L122.719 305.865Z" fill="#432800"></path>
<path d="M117.459 299.625L113.842 297.536L117.459 295.448L121.076 297.536L117.459 299.625Z" fill="#432800"></path>
<path d="M126.335 316.268L122.719 318.357L119.102 316.268L122.719 314.18L126.335 316.268Z" fill="#432800"></path>
<path d="M117.459 312.116L113.842 310.027L117.459 307.939L121.076 310.027L117.459 312.116Z" fill="#432800"></path>
<path d="M126.335 328.761L122.719 330.85L119.102 328.761L122.719 326.673L126.335 328.761Z" fill="#432800"></path>
<path d="M117.459 324.609L113.842 322.52L117.459 320.432L121.076 322.52L117.459 324.609Z" fill="#432800"></path>
<path d="M119.102 341.268L122.719 339.18L126.335 341.268L122.719 343.357L119.102 341.268Z" fill="#432800"></path>
<path d="M113.842 335.015L117.459 332.926L121.076 335.015L117.459 337.103L113.842 335.015Z" fill="#432800"></path>
<path d="M117.459 357.911L121.076 359.999L117.459 362.088L113.842 359.999L117.459 357.911Z" fill="#432800"></path>
<path d="M122.719 351.672L126.335 353.76L122.719 355.849L119.102 353.76L122.719 351.672Z" fill="#432800"></path>
<path d="M113.842 347.508L117.459 345.419L121.076 347.508L117.459 349.597L113.842 347.508Z" fill="#432800"></path>
<path d="M123.202 364.444L122.056 364.546L122.718 364.164L123.202 364.444Z" fill="#432800"></path>
<path d="M133.238 293.371L129.621 291.283L133.238 289.194L136.855 291.283L133.238 293.371Z" fill="#432800"></path>
<path d="M131.595 310.027L127.978 312.116L124.361 310.027L127.978 307.939L131.595 310.027Z" fill="#432800"></path>
<path d="M136.855 303.776L133.238 305.865L129.621 303.776L133.238 301.688L136.855 303.776Z" fill="#432800"></path>
<path d="M131.595 297.536L127.978 299.625L124.361 297.536L127.978 295.448L131.595 297.536Z" fill="#432800"></path>
<path d="M136.855 316.268L133.238 318.357L129.621 316.268L133.238 314.18L136.855 316.268Z" fill="#432800"></path>
<path d="M131.595 335.015L127.978 337.103L124.361 335.015L127.978 332.926L131.595 335.015Z" fill="#432800"></path>
<path d="M136.855 328.761L133.238 330.85L129.621 328.761L133.238 326.673L136.855 328.761Z" fill="#432800"></path>
<path d="M131.595 322.52L127.978 324.609L124.361 322.52L127.978 320.432L131.595 322.52Z" fill="#432800"></path>
<path d="M136.855 341.268L133.238 343.357L129.621 341.268L133.238 339.18L136.855 341.268Z" fill="#432800"></path>
<path d="M127.978 357.911L131.595 359.999L127.978 362.088L124.361 359.999L127.978 357.911Z" fill="#432800"></path>
<path d="M133.238 351.672L136.855 353.76L133.238 355.849L129.621 353.76L133.238 351.672Z" fill="#432800"></path>
<path d="M124.361 347.508L127.978 345.419L131.595 347.508L127.978 349.597L124.361 347.508Z" fill="#432800"></path>
<path d="M149.016 282.941L152.633 285.029L149.016 287.118L145.4 285.029L149.016 282.941Z" fill="#432800"></path>
<path d="M147.374 291.283L143.757 293.371L140.14 291.283L143.757 289.194L147.374 291.283Z" fill="#432800"></path>
<path d="M138.497 287.119L136.027 285.692L140.204 283.935L142.114 285.03L138.497 287.119Z" fill="#432800"></path>
<path d="M142.114 310.027L138.497 312.116L134.88 310.027L138.497 307.939L142.114 310.027Z" fill="#432800"></path>
<path d="M147.374 303.776L143.757 305.865L140.14 303.776L143.757 301.688L147.374 303.776Z" fill="#432800"></path>
<path d="M149.016 307.939L152.633 310.027L149.016 312.116L145.4 310.027L149.016 307.939Z" fill="#432800"></path>
<path d="M138.497 299.625L134.88 297.536L138.497 295.448L142.114 297.536L138.497 299.625Z" fill="#432800"></path>
<path d="M149.016 299.625L145.4 297.536L149.016 295.448L152.633 297.536L149.016 299.625Z" fill="#432800"></path>
<path d="M147.374 316.268L143.757 318.357L140.14 316.268L143.757 314.18L147.374 316.268Z" fill="#432800"></path>
<path d="M142.114 335.015L138.497 337.103L134.88 335.015L138.497 332.926L142.114 335.015Z" fill="#432800"></path>
<path d="M147.374 328.761L143.757 330.85L140.14 328.761L143.757 326.673L147.374 328.761Z" fill="#432800"></path>
<path d="M149.016 332.926L152.633 335.015L149.016 337.103L145.4 335.015L149.016 332.926Z" fill="#432800"></path>
<path d="M138.497 324.609L134.88 322.52L138.497 320.432L142.114 322.52L138.497 324.609Z" fill="#432800"></path>
<path d="M149.016 324.609L145.4 322.52L149.016 320.432L152.633 322.52L149.016 324.609Z" fill="#432800"></path>
<path d="M147.374 341.268L143.757 343.357L140.14 341.268L143.757 339.18L147.374 341.268Z" fill="#432800"></path>
<path d="M147.374 353.76L143.757 355.849L140.14 353.76L143.757 351.672L147.374 353.76Z" fill="#432800"></path>
<path d="M142.114 347.508L138.497 349.597L134.88 347.508L138.497 345.419L142.114 347.508Z" fill="#432800"></path>
<path d="M149.016 345.419L152.633 347.508L149.016 349.597L145.4 347.508L149.016 345.419Z" fill="#432800"></path>
<path d="M134.88 359.999L138.497 357.911L142.114 359.999L138.497 362.088L134.88 359.999Z" fill="#432800"></path>
<path d="M149.016 362.088L145.4 359.999L149.016 357.911L152.633 359.999L149.016 362.088Z" fill="#432800"></path>
<path d="M154.276 280.878L151.423 279.223L155.6 277.465L157.892 278.79L154.276 280.878Z" fill="#432800"></path>
<path d="M157.892 291.283L154.276 293.371L150.659 291.283L154.276 289.194L157.892 291.283Z" fill="#432800"></path>
<path d="M157.892 303.776L154.276 305.865L150.659 303.776L154.276 301.688L157.892 303.776Z" fill="#432800"></path>
<path d="M157.892 316.268L154.276 318.357L150.659 316.268L154.276 314.18L157.892 316.268Z" fill="#432800"></path>
<path d="M157.892 328.761L154.276 330.85L150.659 328.761L154.276 326.673L157.892 328.761Z" fill="#432800"></path>
<path d="M157.892 341.268L154.276 343.357L150.659 341.268L154.276 339.18L157.892 341.268Z" fill="#432800"></path>
<path d="M157.892 353.76L154.276 355.849L150.659 353.76L154.276 351.672L157.892 353.76Z" fill="#432800"></path>
<path d="M163.165 285.029L159.548 287.118L155.931 285.029L159.548 282.941L163.165 285.029Z" fill="#432800"></path>
<path d="M168.424 278.789L164.808 280.878L161.191 278.789L164.808 276.701L168.424 278.789Z" fill="#432800"></path>
<path d="M168.424 291.283L164.808 293.371L161.191 291.283L164.808 289.194L168.424 291.283Z" fill="#432800"></path>
<path d="M163.165 310.027L159.548 312.116L155.931 310.027L159.548 307.939L163.165 310.027Z" fill="#432800"></path>
<path d="M168.424 303.776L164.808 305.865L161.191 303.776L164.808 301.688L168.424 303.776Z" fill="#432800"></path>
<path d="M163.165 297.536L159.548 299.625L155.931 297.536L159.548 295.448L163.165 297.536Z" fill="#432800"></path>
<path d="M168.424 316.268L164.808 318.357L161.191 316.268L164.808 314.18L168.424 316.268Z" fill="#432800"></path>
<path d="M163.165 335.015L159.548 337.103L155.931 335.015L159.548 332.926L163.165 335.015Z" fill="#432800"></path>
<path d="M168.424 328.761L164.808 330.85L161.191 328.761L164.808 326.673L168.424 328.761Z" fill="#432800"></path>
<path d="M163.165 322.52L159.548 324.609L155.931 322.52L159.548 320.432L163.165 322.52Z" fill="#432800"></path>
<path d="M168.424 341.268L164.808 343.357L161.191 341.268L164.808 339.18L168.424 341.268Z" fill="#432800"></path>
<path d="M163.165 359.999L160.898 361.311L158.529 361.502L155.931 359.999L159.548 357.911L163.165 359.999Z" fill="#432800"></path>
<path d="M168.424 353.76L164.808 355.849L161.191 353.76L164.808 351.672L168.424 353.76Z" fill="#432800"></path>
<path d="M163.165 347.508L159.548 349.597L155.931 347.508L159.548 345.419L163.165 347.508Z" fill="#432800"></path>
<path d="M173.684 272.537L170.068 274.625L166.82 272.753L171.01 270.996L173.684 272.537Z" fill="#432800"></path>
<path d="M173.684 285.029L170.068 287.118L166.451 285.029L170.068 282.941L173.684 285.029Z" fill="#432800"></path>
<path d="M178.943 278.789L175.327 280.878L171.71 278.789L175.327 276.701L178.943 278.789Z" fill="#432800"></path>
<path d="M173.684 297.536L170.068 299.625L166.451 297.536L170.068 295.448L173.684 297.536Z" fill="#432800"></path>
<path d="M178.943 291.283L175.327 293.371L171.71 291.283L175.327 289.194L178.943 291.283Z" fill="#432800"></path>
<path d="M173.684 310.027L170.068 312.116L166.451 310.027L170.068 307.939L173.684 310.027Z" fill="#432800"></path>
<path d="M178.943 303.776L175.327 305.865L171.71 303.776L175.327 301.688L178.943 303.776Z" fill="#432800"></path>
<path d="M173.684 322.52L170.068 324.609L166.451 322.52L170.068 320.432L173.684 322.52Z" fill="#432800"></path>
<path d="M178.943 316.268L175.327 318.357L171.71 316.268L175.327 314.18L178.943 316.268Z" fill="#432800"></path>
<path d="M173.684 335.015L170.068 337.103L166.451 335.015L170.068 332.926L173.684 335.015Z" fill="#432800"></path>
<path d="M178.943 328.761L175.327 330.85L171.71 328.761L175.327 326.673L178.943 328.761Z" fill="#432800"></path>
<path d="M178.943 341.268L175.327 343.357L171.71 341.268L175.327 339.18L178.943 341.268Z" fill="#432800"></path>
<path d="M178.943 353.76L175.327 355.849L171.71 353.76L175.327 351.672L178.943 353.76Z" fill="#432800"></path>
<path d="M173.684 347.508L170.068 349.597L166.451 347.508L170.068 345.419L173.684 347.508Z" fill="#432800"></path>
<path d="M167.724 360.738L166.451 359.999L170.068 357.911L173.684 359.999L173.2 360.279L167.724 360.738Z" fill="#432800"></path>
<path d="M185.846 268.384L182.229 266.296L182.331 266.232L186.406 264.526L189.462 266.296L185.846 268.384Z" fill="#432800"></path>
<path d="M184.203 285.029L180.586 287.118L176.97 285.029L180.586 282.941L184.203 285.029Z" fill="#432800"></path>
<path d="M189.462 278.789L185.846 280.878L182.229 278.789L185.846 276.701L189.462 278.789Z" fill="#432800"></path>
<path d="M184.203 272.536L180.586 274.625L176.97 272.536L180.586 270.448L184.203 272.536Z" fill="#432800"></path>
<path d="M189.462 291.283L185.846 293.371L182.229 291.283L185.846 289.194L189.462 291.283Z" fill="#432800"></path>
<path d="M184.203 310.027L180.586 312.116L176.97 310.027L180.586 307.939L184.203 310.027Z" fill="#432800"></path>
<path d="M189.462 303.776L185.846 305.865L182.229 303.776L185.846 301.688L189.462 303.776Z" fill="#432800"></path>
<path d="M184.203 297.536L180.586 299.625L176.97 297.536L180.586 295.448L184.203 297.536Z" fill="#432800"></path>
<path d="M189.462 316.268L185.846 318.357L182.229 316.268L185.846 314.18L189.462 316.268Z" fill="#432800"></path>
<path d="M184.203 335.015L180.586 337.103L176.97 335.015L180.586 332.926L184.203 335.015Z" fill="#432800"></path>
<path d="M189.462 328.761L185.846 330.85L182.229 328.761L185.846 326.673L189.462 328.761Z" fill="#432800"></path>
<path d="M184.203 322.52L180.586 324.609L176.97 322.52L180.586 320.432L184.203 322.52Z" fill="#432800"></path>
<path d="M188.393 340.644L187.018 342.682L185.846 343.357L182.229 341.268L185.846 339.18L188.393 340.644Z" fill="#432800"></path>
<path d="M183.859 347.317L183.426 347.966L180.587 349.597L176.97 347.508L180.587 345.419L183.859 347.317Z" fill="#432800"></path>
<path d="M196.365 268.385L192.748 266.296L196.365 264.208L199.982 266.296L196.365 268.385Z" fill="#432800"></path>
<path d="M194.722 285.029L191.106 287.118L187.489 285.029L191.106 282.941L194.722 285.029Z" fill="#432800"></path>
<path d="M196.365 280.878L192.748 278.789L196.365 276.701L199.982 278.789L196.365 280.878Z" fill="#432800"></path>
<path d="M194.722 272.536L191.106 274.625L187.489 272.536L191.106 270.448L194.722 272.536Z" fill="#432800"></path>
<path d="M199.982 291.283L196.365 293.371L192.748 291.283L196.365 289.194L199.982 291.283Z" fill="#432800"></path>
<path d="M194.722 310.027L191.106 312.116L187.489 310.027L191.106 307.939L194.722 310.027Z" fill="#432800"></path>
<path d="M199.982 303.776L196.365 305.865L192.748 303.776L196.365 301.688L199.982 303.776Z" fill="#432800"></path>
<path d="M194.722 297.536L191.106 299.625L187.489 297.536L191.106 295.448L194.722 297.536Z" fill="#432800"></path>
<path d="M199.982 316.268L196.365 318.357L192.748 316.268L196.365 314.18L199.982 316.268Z" fill="#432800"></path>
<path d="M192.927 333.983L190.889 336.976L187.489 335.015L191.106 332.926L192.927 333.983Z" fill="#432800"></path>
<path d="M197.46 327.31L195.423 330.315L192.748 328.761L196.365 326.673L197.46 327.31Z" fill="#432800"></path>
<path d="M194.722 322.52L191.106 324.609L187.489 322.52L191.106 320.432L194.722 322.52Z" fill="#432800"></path>
<path d="M206.897 268.385L203.28 266.296L206.897 264.208L210.514 266.296L206.897 268.385Z" fill="#432800"></path>
<path d="M198.008 260.043L200.555 258.578L201.803 258.056L205.241 260.043L201.625 262.131L198.008 260.043Z" fill="#432800"></path>
<path d="M205.241 285.029L201.625 287.118L198.008 285.029L201.625 282.941L205.241 285.029Z" fill="#432800"></path>
<path d="M210.514 278.789L206.897 280.878L203.28 278.789L206.897 276.701L210.514 278.789Z" fill="#432800"></path>
<path d="M201.625 274.625L198.008 272.536L201.625 270.448L205.241 272.536L201.625 274.625Z" fill="#432800"></path>
<path d="M210.514 291.283L206.897 293.371L203.28 291.283L206.897 289.194L210.514 291.283Z" fill="#432800"></path>
<path d="M205.241 310.027L201.625 312.116L198.008 310.027L201.625 307.939L205.241 310.027Z" fill="#432800"></path>
<path d="M210.514 303.776L206.897 305.865L203.28 303.776L206.897 301.688L210.514 303.776Z" fill="#432800"></path>
<path d="M201.625 299.625L198.008 297.536L201.625 295.448L205.241 297.536L201.625 299.625Z" fill="#432800"></path>
<path d="M204.49 316.982L203.28 316.269L206.069 314.664L204.49 316.982Z" fill="#432800"></path>
<path d="M201.994 320.648L199.956 323.641L198.008 322.52L201.624 320.432L201.994 320.648Z" fill="#432800"></path>
<path d="M214.449 259.28L215.773 260.044L212.156 262.133L208.54 260.044L212.156 257.956L214.449 259.28Z" fill="#432800"></path>
<path d="M217.416 255.892L213.799 253.804L217.416 251.715L221.033 253.804L217.416 255.892Z" fill="#432800"></path>
<path d="M221.033 266.296L217.416 268.385L213.799 266.296L217.416 264.208L221.033 266.296Z" fill="#432800"></path>
<path d="M214.449 284.265L215.773 285.029L212.156 287.118L208.54 285.029L212.156 282.941L214.449 284.265Z" fill="#432800"></path>
<path d="M221.033 278.789L217.416 280.878L213.799 278.789L217.416 276.701L221.033 278.789Z" fill="#432800"></path>
<path d="M215.773 272.536L212.156 274.625L208.54 272.536L212.156 270.448L215.773 272.536Z" fill="#432800"></path>
<path d="M221.033 291.283L217.416 293.371L213.799 291.283L217.416 289.194L221.033 291.283Z" fill="#432800"></path>
<path d="M215.773 297.536L212.156 299.625L208.54 297.536L212.156 295.448L215.773 297.536Z" fill="#432800"></path>
<path d="M209.024 310.309L208.54 310.028L209.66 309.379L209.024 310.309Z" fill="#432800"></path>
<path d="M226.293 260.044L222.676 262.133L219.059 260.044L222.676 257.956L226.293 260.044Z" fill="#432800"></path>
<path d="M231.552 253.804L227.935 255.892L224.319 253.804L227.935 251.715L231.552 253.804Z" fill="#432800"></path>
<path d="M222.676 249.638L222.319 249.434L224.93 248.339L222.676 249.638Z" fill="#432800"></path>
<path d="M226.293 272.536L222.676 274.625L219.059 272.536L222.676 270.448L226.293 272.536Z" fill="#432800"></path>
<path d="M231.552 266.296L227.935 268.385L224.319 266.296L227.935 264.208L231.552 266.296Z" fill="#432800"></path>
<path d="M226.228 285.004L226.165 285.106L222.675 287.118L219.059 285.029L222.675 282.941L226.228 285.004Z" fill="#432800"></path>
<path d="M230.762 278.331L229.756 279.821L227.935 280.878L224.318 278.789L227.935 276.701L230.762 278.331Z" fill="#432800"></path>
<path d="M242.071 241.297L238.454 243.386L237.716 242.965L241.905 241.208L242.071 241.297Z" fill="#432800"></path>
<path d="M236.812 260.044L233.195 262.133L229.578 260.044L233.195 257.956L236.812 260.044Z" fill="#432800"></path>
<path d="M242.071 253.804L238.454 255.892L234.837 253.804L238.454 251.715L242.071 253.804Z" fill="#432800"></path>
<path d="M236.812 247.551L233.195 249.639L229.578 247.551L233.195 245.462L236.812 247.551Z" fill="#432800"></path>
<path d="M239.83 264.997L237.792 268.003L234.838 266.296L238.454 264.208L239.83 264.997Z" fill="#432800"></path>
<path d="M235.296 271.67L233.347 274.536L233.195 274.625L229.578 272.536L233.195 270.448L235.296 271.67Z" fill="#432800"></path>
<path d="M248.973 243.386L245.357 241.297L248.973 239.208L252.59 241.297L248.973 243.386Z" fill="#432800"></path>
<path d="M246.859 254.669L245.357 253.803L248.808 251.816L246.859 254.669Z" fill="#432800"></path>
<path d="M247.33 247.551L243.714 249.639L240.097 247.551L243.714 245.462L247.33 247.551Z" fill="#432800"></path>
<path d="M240.097 260.044L243.714 257.956L244.363 258.338L242.326 261.33L240.097 260.044Z" fill="#432800"></path>
<path d="M255.99 241.247L255.927 241.336L255.888 241.298L255.99 241.247Z" fill="#432800"></path>
<path d="M253.112 236.497L257.302 234.74L257.862 235.058L254.245 237.147L253.112 236.497Z" fill="#432800"></path>
<path d="M251.393 247.996L250.629 247.551L252.399 246.532L251.393 247.996Z" fill="#432800"></path>
<path d="M255.876 242.164C255.876 258.477 244.376 278.382 230.266 286.558C223.198 290.633 216.779 291.015 212.144 288.328C207.508 285.641 204.63 279.897 204.63 271.76C204.617 255.434 216.117 235.529 230.253 227.366C237.308 223.29 243.726 222.908 248.349 225.596C252.985 228.257 255.863 234.013 255.863 242.164H255.876ZM230.915 142.181L221.033 147.899V179.609C221.033 188.817 226.292 193.58 233.551 191.962C235.194 191.606 236.939 190.918 238.785 189.861L273.424 169.854C281.677 165.092 289.165 164.633 294.59 167.766C300.015 170.899 303.364 177.623 303.377 187.149V228.397C303.364 232.32 300.626 237.032 297.277 238.98C295.583 239.948 294.081 240.037 292.96 239.4C291.852 238.763 291.164 237.414 291.164 235.465V194.217C291.177 192.103 290.884 190.23 290.375 188.613C288.146 181.545 281.396 179.342 273.399 183.965L238.772 203.959C230.52 208.722 223.032 209.155 217.62 206.022C212.195 202.889 208.833 196.203 208.82 186.677V154.929L197.651 161.398L214.283 123.385L230.915 142.181ZM159.917 140.029V347.839C159.917 353.684 161.968 357.797 165.279 359.695C168.59 361.631 173.175 361.35 178.243 358.421L329.204 271.289C339.328 265.443 347.529 251.231 347.529 239.54V31.7181C347.529 25.8728 345.479 21.7721 342.155 19.8873C338.844 17.9516 334.259 18.219 329.204 21.1481L178.269 108.281C168.144 114.126 159.917 128.338 159.917 140.029ZM260.447 117.386C258.053 116.011 258.053 111.554 260.435 107.44C262.829 103.327 266.7 101.073 269.069 102.448L280.62 109.121L292.183 89.1147C294.552 85.0013 298.41 82.7727 300.792 84.1353C303.186 85.5107 303.186 89.9679 300.792 94.0941L289.241 114.088L300.792 120.761C300.856 120.799 300.919 120.825 300.97 120.888C303.186 122.378 303.122 126.708 300.792 130.72C299.595 132.783 298.041 134.375 296.475 135.254C295.01 136.107 293.52 136.349 292.361 135.776C292.298 135.763 292.221 135.725 292.17 135.699L280.62 129.026L269.069 149.033C267.872 151.096 266.318 152.688 264.752 153.592C263.185 154.496 261.632 154.7 260.435 154.012C258.053 152.65 258.066 148.18 260.435 144.066L271.985 124.059L260.435 117.386H260.447Z" fill="white"></path>
<path d="M221.02 179.609V147.899L230.902 142.181L214.27 123.384L197.638 161.398L208.807 154.928V186.677C208.819 196.202 212.182 202.888 217.607 206.021C223.019 209.154 230.507 208.721 238.759 203.958L273.386 183.964C281.384 179.341 288.133 181.544 290.362 188.612C290.884 190.23 291.164 192.102 291.151 194.216V235.464C291.151 237.413 291.839 238.763 292.947 239.399C294.055 240.036 295.558 239.947 297.264 238.979C300.626 237.044 303.351 232.332 303.364 228.396V187.148C303.351 177.622 300.002 170.898 294.577 167.765C289.152 164.632 281.664 165.091 273.411 169.854L238.772 189.86C236.926 190.905 235.181 191.605 233.538 191.962C226.292 193.579 221.02 188.816 221.02 179.609Z" fill="#F9A100"></path>
<path d="M230.253 241.439C222.854 245.73 216.83 256.147 216.817 264.731C216.83 272.639 221.988 276.167 228.648 273.289C229.183 273.059 229.718 272.792 230.253 272.486C237.677 268.195 243.676 257.778 243.688 249.22C243.688 248.596 243.65 247.997 243.574 247.424C242.644 240.229 237.117 237.503 230.253 241.451V241.439Z" fill="white"></path>
<path d="M248.362 225.595C243.727 222.921 237.321 223.303 230.266 227.365C216.117 235.516 204.617 255.433 204.643 271.759C204.643 279.897 207.521 285.653 212.156 288.328C216.792 291.002 223.198 290.62 230.278 286.558C244.389 278.382 255.888 258.477 255.888 242.163C255.888 234.013 253.01 228.257 248.375 225.595H248.362ZM243.688 249.206C243.688 257.764 237.677 268.181 230.253 272.473C229.718 272.778 229.183 273.046 228.648 273.275C221.975 276.14 216.83 272.625 216.817 264.717C216.83 256.146 222.854 245.729 230.253 241.425C237.117 237.49 242.644 240.215 243.574 247.397C243.65 247.958 243.688 248.556 243.688 249.193V249.206Z" fill="#1EAFAF"></path>
<path d="M260.435 107.439C258.066 111.553 258.066 116.01 260.448 117.385L271.998 124.058L260.448 144.065C258.079 148.178 258.066 152.648 260.448 154.011C261.645 154.699 263.199 154.495 264.765 153.591C266.331 152.687 267.885 151.107 269.082 149.032L280.633 129.025L292.183 135.698C292.183 135.698 292.311 135.762 292.374 135.775C293.533 136.36 295.023 136.118 296.488 135.252C298.054 134.361 299.608 132.782 300.805 130.719C303.135 126.694 303.199 122.365 300.983 120.887C300.932 120.824 300.869 120.785 300.805 120.76L289.254 114.087L300.805 94.0929C303.199 89.9541 303.186 85.4968 300.805 84.1342C298.436 82.7588 294.578 84.9874 292.196 89.1136L280.633 109.12L269.082 102.447C266.713 101.072 262.829 103.313 260.448 107.439H260.435Z" fill="#F9BDBD"></path>
<path d="M342.168 19.8488L314.202 3.70082C310.878 1.77784 306.306 2.07074 301.238 4.97432L150.303 92.1325C140.178 97.9779 131.952 112.19 131.952 123.881V331.69C131.952 337.536 134.002 341.649 137.313 343.559L165.279 359.695C161.968 357.784 159.918 353.684 159.918 347.838V140.029C159.918 128.338 168.132 114.126 178.269 108.281L329.204 21.1477C334.26 18.2187 338.844 17.9513 342.155 19.887V19.8488H342.168Z" fill="#F9A100"></path>
<path d="M170.067 363.414C173.009 363.414 176.206 362.459 179.478 360.574L330.439 273.416C341.404 267.087 350 252.199 350 239.528V31.7187C350 25.1601 347.657 20.2062 343.391 17.7484C339.124 15.2905 333.648 15.7363 327.968 19.0091L177.033 106.142C166.056 112.484 157.46 127.358 157.46 140.03V347.839C157.46 354.398 159.803 359.364 164.056 361.835C165.865 362.892 167.902 363.414 170.08 363.414H170.067ZM337.341 21.1104C338.666 21.1104 339.876 21.4033 340.92 22.0146C343.594 23.5555 345.059 27.0067 345.059 31.7187V239.528C345.059 250.417 337.392 263.699 327.968 269.137L177.008 356.295C172.907 358.664 169.176 359.11 166.514 357.569C163.853 356.028 162.388 352.564 162.388 347.839V140.03C162.388 129.141 170.067 115.859 179.504 110.421L330.439 23.2754C332.922 21.8363 335.278 21.1104 337.341 21.1104Z" fill="#432800"></path>
<path d="M218.829 292.531C222.764 292.531 227.082 291.245 231.501 288.698C246.311 280.128 258.346 259.255 258.346 242.165C258.346 233.339 255.239 226.704 249.597 223.457C243.968 220.209 236.671 220.833 229.03 225.24C214.206 233.785 202.146 254.658 202.172 271.773C202.172 280.573 205.279 287.208 210.908 290.468C213.277 291.844 215.951 292.519 218.829 292.519V292.531ZM241.676 226.348C243.688 226.348 245.535 226.806 247.139 227.736C251.189 230.066 253.418 235.186 253.418 242.165C253.418 257.688 242.478 276.638 229.03 284.419C222.981 287.896 217.428 288.533 213.379 286.189C209.329 283.846 207.1 278.727 207.1 271.761C207.088 256.224 218.027 237.274 231.488 229.506C235.13 227.405 238.594 226.335 241.663 226.335L241.676 226.348Z" fill="#005655"></path>
<path d="M224.267 276.74C225.961 276.74 227.77 276.345 229.629 275.543C230.24 275.276 230.864 274.97 231.488 274.601C239.702 269.85 246.146 258.695 246.159 249.194C246.159 248.481 246.121 247.768 246.019 247.08C245.471 242.814 243.472 239.63 240.39 238.102C237.168 236.51 233.131 236.918 229.018 239.287C220.803 244.062 214.36 255.231 214.347 264.706C214.347 269.494 216.041 273.225 219.084 275.225C220.6 276.218 222.37 276.727 224.267 276.727V276.74ZM236.175 242.101C236.926 242.101 237.601 242.241 238.199 242.547C239.753 243.323 240.785 245.157 241.129 247.743C241.192 248.214 241.218 248.71 241.218 249.22C241.218 256.848 235.627 266.539 229.018 270.36C228.572 270.615 228.126 270.844 227.68 271.035C225.324 272.054 223.236 272.092 221.784 271.137C220.179 270.08 219.288 267.813 219.275 264.744C219.288 257.115 224.879 247.424 231.488 243.591C233.195 242.61 234.799 242.114 236.175 242.114V242.101Z" fill="#005655"></path>
<path d="M262.039 156.877C263.313 156.877 264.676 156.495 266 155.718C267.987 154.572 269.846 152.636 271.209 150.267L281.524 132.4L290.935 137.838C291.075 137.94 291.279 138.029 291.47 138.093C293.317 138.921 295.532 138.679 297.723 137.405C299.697 136.284 301.556 134.349 302.931 131.967C305.886 126.861 305.708 121.359 302.562 119.003C302.307 118.787 302.066 118.647 301.887 118.557L292.616 113.196L302.931 95.3415C304.816 92.0813 305.504 88.4901 304.765 85.7393C304.32 84.071 303.377 82.7721 302.04 82.008C300.703 81.2439 299.124 81.0656 297.443 81.5113C294.692 82.2499 291.928 84.6314 290.056 87.8788L279.728 105.746L270.317 100.308C266.649 98.1814 261.492 100.716 258.308 106.192C256.423 109.452 255.748 113.03 256.487 115.781C256.933 117.449 257.888 118.748 259.225 119.512L268.636 124.95L258.321 142.818C256.436 146.078 255.761 149.669 256.5 152.42C256.945 154.088 257.888 155.374 259.225 156.138C260.078 156.622 261.033 156.864 262.039 156.864V156.877ZM280.62 126.568C280.403 126.568 280.187 126.593 279.983 126.657C279.346 126.822 278.811 127.243 278.48 127.803L266.93 147.81C266 149.414 264.765 150.751 263.517 151.465C262.74 151.91 262.014 152.076 261.657 151.885C261.415 151.745 261.288 151.337 261.237 151.159C260.931 150.038 261.097 147.848 262.562 145.301L274.112 125.294C274.787 124.11 274.392 122.607 273.208 121.919L261.657 115.246C261.415 115.106 261.275 114.724 261.224 114.508C260.919 113.4 261.097 111.197 262.549 108.675C264.434 105.415 267.07 104.154 267.821 104.587L279.372 111.26C280.556 111.948 282.059 111.54 282.747 110.356L294.31 90.3494C295.762 87.8151 297.583 86.5798 298.703 86.2742C298.882 86.2232 299.315 86.1341 299.557 86.2742C299.799 86.4143 299.926 86.7963 299.99 87.0128C300.295 88.1208 300.117 90.3239 298.653 92.8582L287.102 112.852C286.414 114.036 286.822 115.539 288.006 116.214L299.455 122.824C299.455 122.824 299.544 122.887 299.595 122.925C300.321 123.409 300.512 126.262 298.653 129.471C297.723 131.076 296.488 132.4 295.265 133.101C294.386 133.61 293.737 133.687 293.469 133.559C293.393 133.521 293.317 133.483 293.24 133.457L281.868 126.873C281.486 126.657 281.065 126.542 280.633 126.542L280.62 126.568ZM293.291 133.508C293.367 133.546 293.444 133.585 293.52 133.648L293.291 133.508Z" fill="#3F2900"></path>
<path d="M294.539 242.266C295.8 242.266 297.137 241.871 298.487 241.107C302.587 238.738 305.809 233.16 305.835 228.397V187.149C305.822 176.999 302.256 169.358 295.812 165.639C289.356 161.908 280.963 162.646 272.176 167.728L237.537 187.734C235.958 188.639 234.43 189.25 233.016 189.555C230.482 190.116 228.304 189.734 226.7 188.448C224.637 186.792 223.49 183.646 223.49 179.609V149.313L232.137 144.308C232.774 143.939 233.22 143.302 233.335 142.563C233.449 141.837 233.233 141.086 232.749 140.538L216.117 121.742C215.556 121.118 214.716 120.812 213.888 120.939C213.06 121.067 212.347 121.614 212.016 122.391L195.384 160.405C194.951 161.386 195.206 162.519 195.996 163.232C196.785 163.945 197.957 164.06 198.874 163.525L206.349 159.195V186.665C206.362 196.789 209.928 204.417 216.384 208.149C222.841 211.893 231.221 211.154 240.008 206.085L274.634 186.092C278.136 184.067 281.422 183.494 283.905 184.449C285.828 185.2 287.255 186.894 288.031 189.352C288.49 190.803 288.719 192.434 288.706 194.191V235.452C288.706 238.203 289.814 240.419 291.737 241.527C292.603 242.024 293.546 242.266 294.552 242.266H294.539ZM286.758 168.224C289.19 168.224 291.406 168.785 293.355 169.905C298.207 172.707 300.894 178.833 300.906 187.149V228.384C300.894 231.441 298.665 235.312 296.042 236.828C295.087 237.375 294.45 237.401 294.195 237.248C293.94 237.095 293.635 236.535 293.635 235.44V194.191C293.647 191.911 293.342 189.772 292.731 187.836C291.508 183.965 289.012 181.125 285.701 179.826C281.804 178.31 277.003 179.011 272.176 181.8L237.55 201.794C230.367 205.945 223.72 206.684 218.868 203.857C214.003 201.042 211.316 194.93 211.303 186.639V154.891C211.303 154.012 210.832 153.197 210.068 152.751C209.304 152.306 208.361 152.306 207.597 152.751L202.936 155.451L215.009 127.867L227.082 141.506L219.81 145.709C219.046 146.155 218.575 146.97 218.575 147.848V179.558C218.575 185.124 220.37 189.619 223.63 192.243C226.407 194.471 230.113 195.21 234.086 194.318C235.971 193.911 237.97 193.121 240.008 191.95L274.66 171.93C278.989 169.434 283.116 168.173 286.771 168.173L286.758 168.224Z" fill="#432800"></path>
<path d="M165.278 362.165C166.132 362.165 166.959 361.719 167.418 360.93C168.093 359.745 167.698 358.243 166.514 357.568L138.535 341.42C135.873 339.892 134.409 336.428 134.409 331.69V123.881C134.409 113.005 142.088 99.7098 151.525 94.272L302.472 7.11376C306.586 4.75779 310.317 4.29933 312.979 5.84026L340.945 21.9882C342.129 22.6759 343.632 22.2684 344.307 21.084C344.995 19.8997 344.587 18.397 343.403 17.722L315.437 1.56131C311.196 -0.896544 305.72 -0.438085 300.015 2.83481L149.067 89.993C138.089 96.3351 129.493 111.21 129.493 123.881V331.703C129.493 338.287 131.836 343.254 136.09 345.712L164.056 361.847C164.438 362.076 164.871 362.178 165.291 362.178L165.278 362.165Z" fill="#432800"></path>
</svg>